<?xml version="1.0" encoding="UTF-8" standalone="no"?>
<!-- Created with Inkscape (http://www.inkscape.org/) -->
<svg xmlns:dc="http://purl.org/dc/elements/1.1/" xmlns:cc="http://creativecommons.org/ns#" xmlns:rdf="http://www.w3.org/1999/02/22-rdf-syntax-ns#" xmlns:svg="http://www.w3.org/2000/svg" xmlns="http://www.w3.org/2000/svg" xmlns:sodipodi="http://sodipodi.sourceforge.net/DTD/sodipodi-0.dtd" xmlns:inkscape="http://www.inkscape.org/namespaces/inkscape" width="258.194" height="128.7684" viewBox="0 0 68.313826 34.069972" version="1.1" id="svg4090" inkscape:version="0.92.0 r15299" sodipodi:docname="groupama group.svg">
  <defs id="defs4084">
    <linearGradient id="linearGradient3627" spreadMethod="pad" gradientTransform="matrix(-106.66941,0,0,106.6694,646.87873,517.02486)" gradientUnits="userSpaceOnUse" y2="0" x2="1" y1="0" x1="0">
      <stop id="stop3617" offset="0" style="stop-opacity:1;stop-color:#95c120"/>
      <stop id="stop3619" offset="0.00840625" style="stop-opacity:1;stop-color:#95c120"/>
      <stop id="stop3621" offset="0.5" style="stop-opacity:1;stop-color:#0a797a"/>
      <stop id="stop3623" offset="0.9967019" style="stop-opacity:1;stop-color:#006953"/>
      <stop id="stop3625" offset="1" style="stop-opacity:1;stop-color:#006953"/>
    </linearGradient>
  </defs>
  <sodipodi:namedview id="base" pagecolor="#ffffff" bordercolor="#666666" borderopacity="1.0" inkscape:pageopacity="0.0" inkscape:pageshadow="2" inkscape:zoom="0.35" inkscape:cx="278.09678" inkscape:cy="137.6062" inkscape:document-units="mm" inkscape:current-layer="layer1" showgrid="false" fit-margin-top="0" fit-margin-left="0" fit-margin-right="0" fit-margin-bottom="0" units="px" inkscape:window-width="1280" inkscape:window-height="744" inkscape:window-x="-4" inkscape:window-y="-4" inkscape:window-maximized="1"/>
  <metadata id="metadata4087">
    <rdf:RDF>
      <cc:Work rdf:about="">
        <dc:format>image/svg+xml</dc:format>
        <dc:type rdf:resource="http://purl.org/dc/dcmitype/StillImage"/>
        <dc:title/>
      </cc:Work>
    </rdf:RDF>
  </metadata>
  <g inkscape:label="Layer 1" inkscape:groupmode="layer" id="layer1" transform="translate(61.106558,-151.17167)">
    <g transform="matrix(0.46062021,0,0,0.46062021,-298.49658,-78.040114)" id="g4064">
      <path inkscape:connector-curvature="0" id="path3629" style="fill:url(#linearGradient3627);stroke:none;stroke-width:0.35277778" d="m 596.34469,498.68033 -1.524,24.13423 c 1.66899,0.0371 3.35562,0.16299 4.99886,0.39653 v 0 l 11.35063,-24.65882 c -2.35091,-0.23459 -4.79954,-0.3623 -7.35718,-0.3623 v 0 c -2.52166,0 -5.01192,0.17745 -7.46831,0.49036 m -23.35071,7.493 10.3258,17.66394 c 1.61008,-0.31256 3.22898,-0.5588 4.83553,-0.73237 v 0 l -3.73239,-21.72405 c -3.97122,1.29081 -7.79745,2.915 -11.42894,4.79248 m 34.13619,19.10398 c 1.69545,0.8195 3.14501,1.87819 4.22063,3.21627 v 0 l 28.21093,-17.2272 c -3.66642,-4.16066 -8.65187,-7.48065 -14.83607,-9.7349 v 0 z m -53.97959,-5.04367 16.28987,8.05357 c 1.96709,-0.91652 4.08375,-1.74908 6.28967,-2.47333 v 0 l -12.39661,-13.79573 c -3.7151,2.58481 -7.13281,5.36822 -10.18293,8.21549 m 60.18283,13.38474 c 0.0536,0.70521 0.0452,1.44957 -0.0385,2.2412 v 0 h 33.37701 c 0.57114,-4.98016 0.1658,-9.64671 -1.13312,-13.89133 v 0 z m -73.07192,2.2412 h 18.57834 c 1.00965,-1.30916 2.39536,-2.58798 4.0647,-3.80153 v 0 l -15.91415,-5.455 c -2.79189,3.21733 -5.06695,6.37257 -6.72889,9.25653"/>
      <path d="m 535.75539,547.46675 h -10.50537 v 3.24802 h 7.1695 v 4.33106 c -1.84361,0.5274 -4.0968,0.87806 -5.85258,0.87806 -4.15537,0 -6.93526,-2.80917 -6.93526,-7.05203 0,-4.12608 3.0727,-6.90633 7.6962,-6.90633 1.17052,0 3.16019,0.26318 5.88151,0.76059 l 0.70238,-3.27695 c -2.42887,-0.61454 -4.91595,-0.87771 -6.84741,-0.87771 -6.67174,0 -11.11956,4.12573 -11.11956,10.3004 0,6.29109 4.24286,10.47574 10.62214,10.47574 2.89701,0 5.99899,-0.78987 9.18845,-2.1657 z m 13.02138,-2.8381 c -2.63349,0 -6.11576,0.40923 -8.51535,0.84808 v 13.43201 h 3.36515 v -10.76889 c 1.69721,-0.14605 3.36514,-0.20461 5.1502,-0.20461 z m 9.56874,-0.17568 c -4.6235,0 -7.75476,2.98485 -7.75476,7.43232 0,4.53602 3.13126,7.5498 7.75476,7.5498 4.59423,0 7.72513,-3.01378 7.72513,-7.5498 0,-4.44747 -3.1309,-7.43232 -7.72513,-7.43232 m 0,11.90978 c -2.60455,0 -4.36033,-1.78471 -4.36033,-4.47746 0,-2.63313 1.75578,-4.35998 4.36033,-4.35998 2.57493,0 4.30142,1.72685 4.30142,4.35998 0,2.69275 -1.72649,4.47746 -4.30142,4.47746 m 24.99043,-11.29524 h -3.39408 v 11.11955 c -1.31727,0.17569 -2.63419,0.26318 -3.83363,0.26318 -2.10714,0 -3.16054,-1.08233 -3.16054,-3.27696 v -8.10577 h -3.39443 v 8.896 c 0,3.86256 2.37032,5.38409 5.82331,5.38409 2.69204,0 6.43784,-0.40922 7.95937,-0.73131 z m 12.26079,-0.43886 c -2.92664,0 -5.85258,0.3803 -7.57908,0.6731 v 20.36622 h 3.36515 v -6.84671 c 1.87325,0.23424 3.01413,0.23424 4.4771,0.23424 4.00932,0 6.70137,-2.95593 6.70137,-7.14058 -0.0875,-4.38961 -2.51636,-7.28627 -6.96454,-7.28627 m -0.20496,11.58805 c -1.11196,0 -2.10679,0.0289 -4.00897,-0.29281 v -8.2229 c 1.14124,-0.14605 2.31211,-0.23424 3.74544,-0.23424 2.98485,0 4.12644,1.93216 4.12644,4.53602 0,2.36996 -1.52188,4.21393 -3.86291,4.21393 m 17.41099,-11.70517 c -2.10714,0 -3.71651,0.23425 -6.02827,0.64347 l 0.35102,2.8388 c 1.69756,-0.26317 3.57011,-0.52705 5.41408,-0.52705 2.04787,0 3.15983,0.76129 3.15983,2.42887 v 0.17569 l -4.06753,0.23424 c -4.24286,0.17569 -6.26216,1.60937 -6.26216,4.35998 0,3.01378 1.90218,4.68207 5.38445,4.68207 1.78541,0 3.16018,0 8.07685,-0.73131 v -8.80815 c 0,-3.62832 -1.93181,-5.29661 -6.02827,-5.29661 m -1.22908,12.11439 c -1.96038,0 -3.01378,-0.6731 -3.01378,-1.8729 0,-1.19944 0.93627,-1.81398 2.8381,-1.9311 l 4.30142,-0.23354 v 3.71581 c -1.90183,0.26317 -3.27695,0.32173 -4.12574,0.32173 m 28.823,-11.99727 c -2.01894,0 -4.44782,0.3803 -5.88151,0.90664 -0.99518,-0.64346 -2.3121,-0.90664 -3.86291,-0.90664 -2.6917,0 -6.14504,0.46779 -7.22771,0.73166 v 13.54843 h 3.36514 v -11.00313 c 1.08268,-0.14605 2.10679,-0.20462 3.13091,-0.20462 2.16535,0 3.21909,0.96591 3.21909,3.2191 v 7.98865 h 3.39443 v -8.92492 c 0,-0.70203 -0.0878,-1.31692 -0.23424,-1.84397 1.11195,-0.32173 2.25319,-0.43886 3.36514,-0.43886 2.16571,0 3.2191,1.08303 3.2191,3.27766 v 7.93009 h 3.36515 v -8.89599 c 0,-3.86257 -2.34068,-5.3841 -5.85259,-5.3841 m 16.67934,-0.11712 c -2.10679,0 -3.71581,0.23425 -6.02792,0.64347 l 0.35102,2.8388 c 1.69756,-0.26317 3.57011,-0.52705 5.41373,-0.52705 2.04822,0 3.16018,0.76129 3.16018,2.42887 v 0.17569 l -4.06682,0.23424 c -4.24357,0.17569 -6.26287,1.60937 -6.26287,4.35998 0,3.01378 1.90218,4.68207 5.38445,4.68207 1.78506,0 3.16054,0 8.07649,-0.73131 v -8.80815 c 0,-3.62832 -1.93145,-5.29661 -6.02826,-5.29661 m -1.22873,12.11439 c -1.96074,0 -3.01413,-0.6731 -3.01413,-1.8729 0,-1.19944 0.93627,-1.81398 2.83845,-1.9311 l 4.30142,-0.23354 v 3.71581 c -1.90183,0.26317 -3.27731,0.32173 -4.12574,0.32173" style="fill:#006953;fill-opacity:1;fill-rule:nonzero;stroke:none;stroke-width:0.35277778" id="path3641" inkscape:connector-curvature="0"/>
      <path d="m 611.2118,567.47528 h -3.10515 v 1.09996 h 1.97132 v 1.02411 c -0.47801,0.11995 -1.07526,0.2219 -1.55328,0.2219 -1.09255,0 -1.82633,-0.75106 -1.82633,-1.86831 0,-1.09255 0.82762,-1.82668 2.06516,-1.82668 0.32456,0 0.87066,0.0769 1.69792,0.21343 l 0.23037,-1.13418 c -0.71614,-0.17921 -1.44181,-0.25577 -2.03059,-0.25577 -1.95439,0 -3.2505,1.20192 -3.2505,3.0032 0,1.8348 1.23649,3.05365 3.10515,3.05365 0.82832,0 1.72403,-0.22966 2.69593,-0.63077 z m 10.23902,1.62842 1.19486,1.77518 h 1.48378 l -1.46649,-2.07328 c 0.6731,-0.35771 1.09114,-0.98036 1.09114,-1.75718 0,-1.31445 -0.94615,-2.02212 -2.37173,-2.02212 -0.76799,0 -1.78294,0.0346 -2.23484,0.0512 v 5.80143 h 1.22766 v -1.77518 h 0.68263 z m -1.07562,-1.07385 v -1.89477 c 0.34996,-0.009 0.70873,-0.009 1.02447,-0.009 0.69144,0 1.14406,0.28151 1.14406,0.92216 0,0.58067 -0.45262,0.98143 -1.05869,0.98143 z m 14.07019,-3.08011 c -1.81822,0 -3.1055,1.21038 -3.1055,3.0286 0,1.81786 1.28728,3.02825 3.1055,3.02825 1.81787,0 3.10515,-1.21039 3.10515,-3.02825 0,-1.81822 -1.28728,-3.0286 -3.10515,-3.0286 m 0,4.90608 c -1.04987,0 -1.81822,-0.75141 -1.81822,-1.87748 0,-1.12642 0.76835,-1.86937 1.81822,-1.86937 1.04952,0 1.81787,0.74295 1.81787,1.86937 0,1.12607 -0.76835,1.87748 -1.81787,1.87748 m 16.13394,-4.77837 h -1.23613 v 3.2512 c 0,0.96414 -0.57221,1.52717 -1.42593,1.52717 -0.86184,0 -1.42522,-0.56303 -1.42522,-1.52717 v -3.2512 h -1.22732 v 3.2512 c 0,1.67217 1.04846,2.67794 2.65254,2.67794 1.60478,0 2.66206,-1.00577 2.66206,-2.67794 z m 10.07639,-0.0762 c -0.79375,0 -1.57833,0.0423 -2.14065,0.0762 v 5.80143 h 1.22731 v -1.70674 h 0.91334 c 1.45098,0 2.44863,-0.83538 2.44863,-2.10714 0,-1.27988 -0.99765,-2.06375 -2.44863,-2.06375 m -0.91334,3.07093 v -1.92864 c 0.32456,-0.0173 0.67451,-0.0173 1.02482,-0.0173 0.6484,0 1.13524,0.33267 1.13524,0.94756 0,0.61489 -0.48684,0.99836 -1.13524,0.99836 z" style="fill:#006953;fill-opacity:1;fill-rule:nonzero;stroke:none;stroke-width:0.35277778" id="path3645" inkscape:connector-curvature="0"/>
    </g>
  </g>
</svg>